<?xml version="1.0" standalone="no"?><!DOCTYPE svg PUBLIC "-//W3C//DTD SVG 1.1//EN" "http://www.w3.org/Graphics/SVG/1.1/DTD/svg11.dtd"><svg height="1024" legacy-metrics="false" node-id="1" sillyvg="true" template-height="1024" template-width="1024" version="1.1" viewBox="0 0 1024 1024" width="1024" xmlns="http://www.w3.org/2000/svg" xmlns:xlink="http://www.w3.org/1999/xlink"><defs node-id="133"></defs><path d="M 691.44 895.64 L 334.07 895.64 C 291.25 895.64 256.54 860.93 256.54 818.11 L 256.54 352.08 C 256.54 331.54 264.69 311.83 279.21 297.30 L 361.85 214.54 C 376.39 199.98 396.13 191.79 416.71 191.79 L 608.52 191.79 C 629.07 191.79 648.77 199.95 663.31 214.47 L 746.22 297.29 C 760.78 311.83 768.96 331.56 768.96 352.14 L 768.96 818.12 C 768.97 860.93 734.26 895.64 691.44 895.64 Z" fill="#683d8d" fill-rule="nonzero" node-id="135" stroke="none" target-height="703.85004" target-width="512.42004" target-x="256.54" target-y="191.79"></path><g node-id="425"><g node-id="439"><path d="M 401.91 519.67 L 401.91 504.37 C 401.63 500.80 401.50 497.62 401.50 494.81 C 401.22 492.01 400.94 489.97 400.67 488.69 C 400.11 487.16 400.11 486.14 400.67 485.63 C 401.22 485.12 402.33 485.00 403.99 485.25 C 406.20 485.76 408.69 486.40 411.46 487.16 C 413.67 487.67 415.88 488.06 418.10 488.31 C 418.93 488.82 419.62 489.21 420.17 489.46 L 428.47 489.46 C 430.40 486.15 432.06 484.36 433.45 484.11 C 436.77 484.87 441.19 487.17 446.73 490.99 C 447.28 492.52 446.87 493.67 445.49 494.43 C 444.10 494.94 443.42 495.71 443.42 496.72 C 443.42 498.51 443.42 501.06 443.42 504.37 C 443.69 507.43 443.97 509.60 444.25 510.87 C 444.80 513.93 443.97 515.72 441.76 516.22 C 438.71 517.24 435.95 517.75 433.46 517.75 C 431.52 518.01 430.41 517.37 430.14 515.84 L 416.45 515.84 L 416.45 534.20 C 416.17 542.11 416.31 551.67 416.87 562.88 C 416.87 563.90 417.01 564.79 417.28 565.56 C 417.28 568.62 416.04 570.53 413.55 571.30 C 410.23 572.57 407.74 573.21 406.08 573.21 C 401.37 573.97 399.58 572.06 400.69 567.47 C 400.96 562.88 401.24 556.64 401.52 548.73 C 401.49 540.58 401.63 530.89 401.91 519.67 Z M 429.71 492.14 L 418.92 492.14 C 416.98 493.16 416.15 494.95 416.43 497.49 L 416.43 501.31 L 429.71 501.31 L 429.71 492.14 Z M 416.43 503.99 L 416.43 512.79 L 429.71 512.79 L 429.71 503.99 L 416.43 503.99 Z M 437.18 525.03 L 458.76 525.03 C 461.52 521.21 463.60 518.91 464.98 518.15 C 467.74 519.17 470.92 521.47 474.52 525.03 C 475.07 526.05 475.35 526.82 475.35 527.32 C 475.07 527.83 474.52 528.08 473.69 528.08 C 472.86 528.08 471.62 528.08 469.96 528.08 C 467.19 527.83 465.12 527.70 463.74 527.70 L 463.33 528.08 C 462.50 528.59 462.22 529.36 462.50 530.37 L 462.50 540.70 L 463.74 540.70 C 467.06 536.37 469.27 534.20 470.38 534.20 C 473.14 535.22 476.33 537.52 479.92 541.08 C 481.02 542.87 480.75 543.89 479.09 544.14 C 475.21 543.89 469.68 543.76 462.49 543.76 C 462.21 551.67 462.49 557.79 463.32 562.12 C 463.32 564.66 462.21 566.33 460.00 567.09 C 458.34 567.85 456.27 568.49 453.78 569.00 C 449.90 569.76 448.39 568.10 449.22 564.03 C 449.22 561.99 449.22 559.57 449.22 556.76 C 449.22 553.70 449.36 549.37 449.64 543.76 L 443.00 543.76 C 441.89 554.98 435.67 563.26 424.33 568.62 C 422.67 569.13 421.56 569.13 421.01 568.62 C 420.73 568.36 421.01 567.72 421.84 566.71 C 426.54 561.86 429.31 554.22 430.14 543.76 C 428.20 544.02 426.41 544.27 424.75 544.53 C 423.64 544.53 422.95 544.53 422.68 544.53 C 421.57 544.79 420.88 544.53 420.61 543.76 C 420.05 543.51 419.50 543.00 418.95 542.23 C 418.67 541.72 418.54 541.34 418.54 541.08 C 418.26 540.32 418.54 539.93 419.37 539.93 C 422.13 540.44 425.73 540.69 430.16 540.69 L 430.16 528.07 C 429.05 528.07 427.81 528.20 426.43 528.45 L 425.19 528.45 C 424.08 528.96 423.39 528.71 423.12 527.69 C 422.84 527.69 422.56 527.44 422.29 526.93 C 422.01 526.42 421.73 525.78 421.46 525.02 C 420.90 524.26 421.04 524.00 421.88 524.26 C 422.98 524.52 425.06 524.77 428.10 525.02 C 431.92 525.03 434.96 525.03 437.18 525.03 Z M 443.40 540.71 L 449.62 540.71 L 449.62 527.71 L 443.40 527.71 L 443.40 539.18 C 443.40 539.94 443.40 540.46 443.40 540.71 Z M 453.36 503.23 L 453.36 495.20 C 453.08 492.40 452.80 489.85 452.53 487.55 C 451.70 485.51 452.67 484.49 455.43 484.49 C 457.64 485.26 461.93 486.40 468.29 487.93 C 469.12 488.44 469.67 488.95 469.95 489.46 L 477.83 489.46 C 480.87 485.13 483.22 482.96 484.88 482.96 C 490.69 485.25 495.80 488.45 500.23 492.52 C 500.23 494.05 499.54 495.07 498.16 495.58 C 496.22 496.60 495.39 497.62 495.67 498.64 L 495.67 519.29 C 495.39 525.67 495.53 535.61 496.08 549.12 C 496.08 553.71 496.22 557.15 496.50 559.45 C 497.05 564.29 495.53 567.48 491.94 569.01 C 488.62 571.30 485.30 572.83 481.98 573.60 C 478.10 574.37 476.03 573.47 475.76 570.92 C 475.20 567.35 472.58 564.80 467.88 563.27 C 465.66 562.51 464.70 561.61 464.98 560.59 C 464.70 560.34 466.08 560.21 469.13 560.21 C 478.26 560.98 482.26 558.68 481.16 553.33 L 481.16 515.85 L 466.22 515.85 C 465.66 516.36 464.98 516.62 464.15 516.62 C 461.93 517.38 459.31 517.77 456.27 517.77 C 452.95 518.28 451.71 516.62 452.54 512.80 C 452.80 509.73 453.08 506.54 453.36 503.23 Z M 481.16 492.14 L 467.88 492.14 C 467.88 492.40 467.74 492.91 467.46 493.67 C 467.46 494.44 467.46 494.95 467.46 495.20 L 467.46 501.32 L 481.15 501.32 L 481.15 492.14 Z M 467.47 512.79 L 481.16 512.79 L 481.16 503.99 L 467.47 503.99 L 467.47 512.79 Z" fill="#f4c76c" fill-rule="nonzero" group-id="1,15" node-id="141" stroke="none" target-height="90.905426" target-width="99.95859" target-x="400.27142" target-y="482.96"></path><path d="M 476.18 645.68 L 467.05 645.68 C 467.05 646.70 467.05 648.11 467.05 649.89 C 467.32 651.68 467.47 652.82 467.47 653.33 C 467.47 655.88 466.23 657.54 463.74 658.30 C 461.52 658.81 459.73 659.20 458.35 659.45 C 464.99 659.45 471.90 659.32 479.10 659.07 C 486.29 658.82 491.68 658.31 495.28 657.54 C 498.60 657.03 500.40 656.91 500.67 657.16 C 501.22 657.93 500.81 658.82 499.43 659.84 C 495.83 662.13 493.76 665.06 493.21 668.64 C 493.21 671.44 491.55 672.59 488.23 672.08 C 484.63 672.08 481.31 672.08 478.27 672.08 C 462.50 672.08 452.13 671.82 447.15 671.32 C 433.04 669.03 424.33 664.30 421.01 657.17 C 420.45 656.15 419.77 655.51 418.94 655.26 C 418.11 655.26 417.42 655.77 416.87 656.79 C 413.27 660.36 410.65 664.44 408.99 669.03 C 408.71 670.30 408.02 671.07 406.92 671.32 C 405.81 671.57 404.85 671.19 404.02 670.17 C 401.25 666.60 398.90 663.15 396.97 659.84 C 396.14 657.55 396.69 656.15 398.63 655.63 C 406.65 653.08 410.25 650.28 409.42 647.22 L 409.42 618.92 L 405.27 618.92 C 404.44 618.92 403.61 619.05 402.78 619.30 C 401.67 619.56 400.84 619.56 400.29 619.30 C 399.18 619.81 398.49 619.68 398.22 618.92 C 397.94 618.67 397.66 618.29 397.39 617.77 C 396.83 617.52 396.56 617.14 396.56 616.62 C 396.28 616.37 396.14 616.11 396.14 615.85 C 396.14 615.60 396.56 615.47 397.38 615.47 C 400.70 615.98 403.88 616.23 406.92 616.23 L 408.17 616.23 C 408.44 615.98 408.86 615.47 409.41 614.70 C 411.34 611.90 412.73 610.49 413.56 610.49 C 418.81 612.28 423.65 614.95 428.08 618.52 C 428.35 619.80 427.80 620.81 426.42 621.58 C 424.76 622.34 423.93 623.24 423.93 624.26 L 423.93 646.82 C 422.82 654.47 430.15 658.55 445.92 659.06 C 446.19 659.06 447.02 659.19 448.41 659.44 C 450.07 659.44 451.45 659.44 452.56 659.44 C 451.73 658.93 451.45 657.66 451.73 655.62 C 451.73 654.86 451.73 653.46 451.73 651.41 C 452.00 649.12 452.15 647.20 452.15 645.67 L 438.87 645.67 C 436.93 645.93 434.86 646.18 432.65 646.44 C 431.82 646.70 431.13 646.44 430.58 645.67 C 429.75 645.16 428.92 644.27 428.09 642.99 C 427.53 642.74 427.40 642.48 427.67 642.23 L 428.92 641.85 C 434.45 642.87 439.01 643.25 442.61 643.00 L 452.15 643.00 C 452.15 641.98 452.15 640.20 452.15 637.65 C 452.42 635.87 452.57 634.47 452.57 633.44 L 446.35 633.44 L 446.35 634.21 C 446.35 636.76 445.11 638.42 442.62 639.18 C 441.51 639.69 439.02 640.08 435.15 640.33 C 432.93 640.59 431.97 639.44 432.25 636.89 L 432.25 621.20 C 432.25 618.14 431.97 615.08 431.42 612.02 C 431.42 611.77 431.42 611.51 431.42 611.26 C 431.14 608.46 432.39 607.43 435.15 608.20 C 438.19 608.71 442.34 609.99 447.60 612.02 L 452.58 612.02 L 452.58 605.90 L 441.38 605.90 C 439.16 606.16 437.09 606.41 435.16 606.66 C 434.05 606.92 433.36 606.66 433.09 605.90 C 432.53 605.65 432.12 605.27 431.85 604.75 C 431.57 604.24 431.29 603.73 431.02 603.22 C 430.46 602.46 430.74 602.07 431.85 602.07 C 435.44 602.58 439.32 602.83 443.47 602.83 L 452.60 602.83 L 452.60 594.42 C 452.32 592.13 453.29 590.98 455.50 590.98 C 460.48 591.75 464.63 592.38 467.95 592.89 C 469.61 593.66 469.88 594.80 468.78 596.33 C 467.39 597.09 466.84 598.24 467.12 599.77 L 467.12 602.83 L 478.74 602.83 C 481.50 599.26 483.72 597.22 485.38 596.71 C 486.76 596.97 489.67 599.00 494.09 602.83 C 495.19 604.62 494.92 605.64 493.26 605.89 L 467.12 605.89 L 467.12 612.01 L 472.51 612.01 C 474.17 608.95 475.83 607.30 477.49 607.04 C 483.30 609.08 487.72 611.63 490.77 614.69 C 490.77 616.22 490.35 617.12 489.52 617.37 C 488.13 618.13 487.58 619.41 487.86 621.19 L 487.86 623.10 C 487.86 625.65 487.86 628.71 487.86 632.28 C 488.13 634.32 487.17 635.60 484.96 636.11 C 481.91 636.87 479.15 637.26 476.66 637.26 C 474.17 637.77 472.93 636.75 472.93 634.20 L 472.93 633.43 L 467.12 633.43 L 467.12 636.49 L 467.12 642.99 L 481.23 642.99 C 484.55 638.66 487.18 636.36 489.11 636.11 C 490.21 636.11 492.57 637.90 496.16 641.46 C 496.71 641.97 497.41 642.48 498.23 642.99 C 498.78 644.78 498.23 645.80 496.57 646.05 C 495.18 646.05 492.69 646.05 489.10 646.05 C 483.23 645.81 478.94 645.68 476.18 645.68 Z M 407.72 596.34 C 406.33 590.99 403.84 586.53 400.25 582.95 C 399.42 582.44 399.14 581.93 399.42 581.42 C 399.69 581.17 400.39 580.91 401.49 580.65 C 412.83 580.91 419.88 583.33 422.65 587.92 C 424.86 593.79 422.92 598.00 416.84 600.54 C 411.87 601.83 408.82 600.42 407.72 596.34 Z M 438.42 585.25 L 479.91 585.25 C 481.84 581.68 483.64 579.64 485.30 579.13 C 488.06 579.89 492.21 582.70 497.75 587.54 C 498.85 588.82 499.41 589.83 499.41 590.60 C 499.13 591.88 498.02 592.39 496.09 592.13 C 490.55 591.88 485.30 594.04 480.32 598.63 C 479.21 599.39 478.52 599.65 478.25 599.39 C 477.69 599.14 477.69 598.37 478.25 597.10 L 480.74 587.92 L 439.66 587.92 C 440.76 591.24 440.91 594.04 440.08 596.33 C 437.03 601.18 433.03 602.45 428.05 600.15 C 424.17 597.61 424.04 594.55 427.63 590.97 C 430.67 588.93 432.47 585.75 433.02 581.41 C 433.02 580.90 433.16 580.52 433.44 580.26 C 433.71 580.01 434.13 580.01 434.68 580.26 C 436.35 581.56 437.59 583.21 438.42 585.25 Z M 446.30 617.38 L 446.30 621.59 L 452.52 621.59 L 452.52 614.71 L 448.37 614.71 C 446.99 614.70 446.30 615.60 446.30 617.38 Z M 452.53 628.47 L 452.53 624.65 L 446.31 624.65 L 446.31 630.39 L 452.53 630.39 L 452.53 628.47 Z M 472.86 614.70 L 467.05 614.70 L 467.05 621.58 L 472.86 621.58 L 472.86 614.70 Z M 467.05 630.38 L 472.86 630.38 L 472.86 624.64 L 467.05 624.64 L 467.05 630.38 Z" fill="#f4c76c" fill-rule="nonzero" group-id="1,15" node-id="143" stroke="none" target-height="93.04224" target-width="104.76593" target-x="396.14" target-y="579.13"></path></g></g><g node-id="426"><g node-id="440"><path d="M 569.69 493.93 L 554.75 493.93 C 552.81 494.95 551.98 496.36 552.26 498.14 L 552.26 531.41 C 559.17 530.65 564.15 529.88 567.20 529.12 C 568.86 529.12 569.83 529.50 570.10 530.27 C 570.10 531.03 569.41 531.80 568.02 532.56 C 567.19 533.07 565.80 533.71 563.87 534.47 C 547.54 541.61 536.49 546.20 530.68 548.24 C 529.57 549.00 528.61 549.77 527.78 550.53 C 526.95 551.81 526.12 552.32 525.29 552.06 C 524.46 551.81 523.77 550.91 523.22 549.38 C 521.56 546.83 520.17 542.75 519.07 537.14 C 518.51 535.36 519.34 534.46 521.56 534.46 C 522.66 534.46 523.91 534.33 525.29 534.08 C 529.99 533.83 533.86 533.45 536.91 532.93 L 536.91 493.92 L 528.61 493.92 C 526.67 494.18 524.60 494.43 522.39 494.69 C 521.56 494.95 521.00 494.69 520.73 493.92 C 519.62 493.41 519.07 492.65 519.07 491.63 C 518.79 491.38 518.65 491.12 518.65 490.86 C 518.65 490.61 519.07 490.48 519.90 490.48 C 522.66 490.99 526.40 491.25 531.10 491.25 L 553.51 491.25 C 556.55 486.41 558.63 483.86 559.73 483.60 C 563.32 485.13 567.06 487.68 570.93 491.25 C 571.48 492.27 571.62 493.04 571.35 493.54 C 571.07 494.06 570.52 494.18 569.69 493.93 Z M 574.67 506.55 L 566.37 506.55 C 565.54 506.55 564.30 506.68 562.64 506.93 C 561.25 506.93 560.42 506.93 560.15 506.93 C 559.32 507.44 558.63 507.31 558.07 506.55 C 557.51 506.30 557.10 505.92 556.83 505.40 C 556.55 505.15 556.41 504.77 556.41 504.25 C 555.85 503.49 556.13 503.10 557.24 503.10 C 560.28 503.61 564.15 503.87 568.86 503.87 L 574.67 503.87 C 574.67 499.79 574.67 495.20 574.67 490.10 C 574.39 484.49 574.11 479.91 573.84 476.33 C 573.28 475.31 573.15 474.55 573.42 474.04 C 573.97 473.79 574.94 473.66 576.32 473.66 C 581.85 474.17 587.38 475.19 592.92 476.72 C 594.30 477.23 595.00 477.87 595.00 478.63 C 595.00 479.65 594.44 480.54 593.34 481.31 C 591.40 482.33 590.71 484.24 591.27 487.05 C 590.99 489.34 590.85 492.40 590.85 496.23 C 590.85 499.80 590.85 502.35 590.85 503.88 L 600.39 503.88 C 603.15 500.06 605.64 497.76 607.86 497.00 C 615.05 500.32 620.16 503.38 623.21 506.18 C 623.21 507.97 622.38 509.11 620.72 509.62 C 618.78 510.38 618.09 511.15 618.65 511.91 C 618.65 517.01 618.23 524.91 617.40 535.62 C 616.57 545.56 615.74 552.45 614.91 556.27 C 613.80 561.37 610.76 564.81 605.78 566.60 C 601.63 567.62 597.90 568.38 594.58 568.89 C 591.53 569.14 589.87 568.38 589.60 566.60 C 588.49 561.75 585.72 558.69 581.30 557.42 C 578.53 556.66 577.42 555.89 577.98 555.13 C 577.70 554.37 579.22 554.11 582.54 554.37 C 587.79 554.88 591.25 554.75 592.91 553.99 C 594.84 553.99 596.50 551.95 597.89 547.87 C 600.10 537.68 601.35 523.91 601.62 506.57 L 590.83 506.57 C 589.72 527.22 585.71 541.12 578.80 548.26 C 573.26 555.14 559.16 561.65 536.48 567.76 C 534.82 568.27 533.85 568.14 533.58 567.38 C 533.58 566.36 534.13 565.59 535.24 565.09 C 562.90 553.34 576.05 533.83 574.67 506.55 Z" fill="#f4c76c" fill-rule="nonzero" group-id="2,16" node-id="151" stroke="none" target-height="95.23001" target-width="104.56" target-x="518.65" target-y="473.66"></path><path d="M 571.35 587.81 L 593.34 587.81 C 595.55 585.01 597.35 583.35 598.73 582.84 C 602.60 583.86 608.41 586.80 616.16 591.64 C 618.65 594.19 618.37 596.10 615.33 597.38 C 613.11 597.89 611.18 599.04 609.52 600.82 C 596.24 615.87 584.48 626.06 574.25 631.42 L 596.66 631.42 C 599.15 627.85 600.95 625.94 602.05 625.68 C 607.30 627.21 612.56 630.14 617.82 634.48 C 618.92 636.27 618.37 637.67 616.16 638.69 C 614.50 639.45 613.67 640.22 613.67 640.98 C 613.67 644.80 613.67 649.39 613.67 654.75 C 613.94 658.83 614.22 661.38 614.50 662.40 C 615.05 665.20 613.94 666.99 611.18 667.75 C 608.96 668.26 605.92 668.90 602.05 669.66 C 598.73 669.91 597.21 668.64 597.49 665.84 L 597.49 661.63 L 565.54 661.63 L 565.54 663.92 C 565.54 666.21 564.43 667.74 562.22 668.51 C 560.83 668.76 559.32 669.02 557.66 669.27 C 556.27 669.27 555.03 669.40 553.93 669.65 C 549.50 669.65 547.84 668.25 548.95 665.44 C 548.95 664.68 548.95 662.12 548.95 657.79 C 549.50 649.38 549.78 643.90 549.78 641.34 C 542.58 643.38 534.56 645.04 525.71 646.31 C 524.32 646.57 523.49 646.44 523.22 645.93 C 522.94 645.42 523.49 644.78 524.88 644.02 C 541.48 637.39 554.61 630.38 564.30 622.98 C 560.70 622.98 558.63 621.07 558.08 617.24 C 557.80 612.14 556.97 608.06 555.59 605.00 C 547.01 612.91 537.75 619.02 527.79 623.36 C 526.68 623.87 525.99 624.00 525.72 623.74 C 525.44 623.49 525.72 622.98 526.55 622.21 C 535.12 614.05 542.45 603.60 548.54 590.85 C 551.03 585.24 552.69 580.52 553.52 576.70 C 553.79 575.17 555.04 574.54 557.25 574.79 C 559.74 575.30 565.27 576.58 573.85 578.61 C 574.95 578.87 575.78 578.99 576.34 578.99 C 578.00 579.50 578.83 580.39 578.83 581.67 C 578.55 582.95 577.72 583.71 576.34 583.96 C 574.68 584.22 573.16 585.11 571.78 586.64 C 571.78 586.90 571.64 587.15 571.37 587.41 C 571.07 587.68 571.07 587.81 571.35 587.81 Z M 592.51 590.49 L 569.27 590.49 C 565.67 595.08 562.07 599.16 558.48 602.73 C 567.33 604.52 572.59 607.58 574.25 611.91 C 574.52 612.67 574.67 613.44 574.67 614.20 C 581.02 607.83 586.97 599.92 592.51 590.49 Z M 597.49 634.47 L 568.45 634.47 C 567.89 634.98 567.21 635.23 566.38 635.23 C 565.55 636.00 565.27 637.14 565.55 638.67 L 565.55 658.56 L 597.50 658.56 L 597.50 634.47 Z" fill="#f4c76c" fill-rule="nonzero" group-id="2,16" node-id="153" stroke="none" target-height="94.872314" target-width="95.16443" target-x="523.1753" target-y="574.78766"></path></g></g><g node-id="427"><g node-id="441"><path d="M 539.47 722.46 L 544.18 710.02 L 477.73 710.02 C 478.98 717.21 478.36 722.19 475.84 724.95 C 470.18 729.93 464.53 730.48 458.87 726.61 C 455.10 722.74 455.25 718.87 459.34 715.00 C 464.36 712.51 467.98 708.23 470.18 702.14 C 470.18 701.31 470.49 700.90 471.12 700.90 C 471.43 700.90 472.06 701.32 473.01 702.14 C 474.58 704.36 475.68 706.02 476.31 707.12 L 506.00 707.12 C 503.80 705.46 502.54 703.53 502.23 701.31 C 501.91 696.89 500.65 693.16 498.46 690.11 C 497.52 688.45 498.30 687.62 500.82 687.62 C 513.07 688.45 519.98 691.91 521.56 697.99 C 521.56 702.42 519.36 705.46 514.96 707.11 L 543.71 707.11 C 546.54 702.96 548.89 700.75 550.78 700.47 C 556.12 702.96 561.62 706.55 567.27 711.25 C 568.84 713.74 569.31 715.26 568.68 715.81 C 568.36 716.92 566.32 717.33 562.55 717.05 C 556.26 717.33 549.66 719.82 542.76 724.51 C 540.87 725.90 539.62 726.45 538.99 726.17 C 538.37 725.65 538.53 724.40 539.47 722.46 Z M 516.85 766.43 L 516.85 736.98 L 475.38 736.98 C 472.24 737.26 468.62 737.54 464.54 737.81 C 462.96 738.09 462.02 737.95 461.71 737.40 C 461.39 736.85 460.77 736.16 459.82 735.33 C 459.50 734.78 459.35 734.36 459.35 734.09 C 459.03 733.82 459.03 733.54 459.35 733.26 C 459.66 732.99 460.13 732.84 460.76 732.84 C 467.04 733.40 472.70 733.67 477.73 733.67 L 516.85 733.67 L 516.85 730.77 C 516.85 724.41 516.38 719.44 515.44 715.84 C 515.12 714.74 515.12 713.91 515.44 713.35 C 516.07 713.08 517.16 712.93 518.74 712.93 C 525.34 713.21 531.30 713.90 536.65 715.00 C 538.22 715.28 539.01 715.97 539.01 717.07 C 539.32 717.90 538.85 718.59 537.60 719.14 C 536.02 719.70 535.24 720.94 535.24 722.87 L 535.24 733.65 L 544.20 733.65 C 548.28 727.84 551.11 724.81 552.68 724.53 C 556.13 725.36 561.00 728.54 567.29 734.07 C 568.23 735.46 568.54 736.42 568.23 736.97 C 567.91 737.53 567.13 737.80 565.87 737.80 C 559.90 737.53 551.42 737.25 540.42 736.97 L 535.24 736.97 L 535.24 751.07 C 535.24 757.15 535.40 762.96 535.71 768.49 C 536.02 772.37 536.18 774.57 536.18 775.13 C 536.81 780.11 535.08 783.42 531.00 785.08 C 525.34 786.74 520.79 787.84 517.33 788.40 C 512.30 789.23 509.79 788.40 509.79 785.91 C 508.21 780.38 504.29 777.06 498.01 775.96 C 495.49 775.40 494.55 774.85 495.18 774.30 C 494.86 773.47 496.28 773.06 499.42 773.06 C 512.61 774.17 518.42 771.96 516.85 766.43 Z M 485.74 758.13 C 486.05 753.98 484.33 748.87 480.56 742.79 C 479.62 742.24 479.30 741.69 479.62 741.13 C 479.93 740.86 480.72 740.71 481.98 740.71 C 493.92 742.37 501.46 746.52 504.60 753.15 C 506.17 759.23 503.50 763.25 496.59 765.18 C 489.67 767.12 486.05 764.77 485.74 758.13 Z" fill="#f4c76c" fill-rule="nonzero" group-id="3,17" node-id="161" stroke="none" target-height="101.09119" target-width="112.791595" target-x="456.1561" target-y="687.62"></path></g></g><g node-id="428"><g node-id="442"><path d="M 697.40 716.88 C 694.56 722.32 682.50 748.31 707.62 754.23 C 709.90 754.77 712.32 754.19 714.12 752.69 C 735.08 735.26 712.37 718.53 705.82 714.37 C 705.33 714.06 704.69 714.45 704.73 715.03 C 704.96 718.33 705.14 720.72 705.27 722.43 C 705.36 723.60 703.86 724.13 703.18 723.18 L 698.60 716.79 C 698.30 716.38 697.65 716.42 697.40 716.88 Z" fill="#d1ccff" fill-rule="nonzero" group-id="4,18" node-id="169" stroke="none" target-height="40.167297" target-width="30.75116" target-x="692.025" target-y="714.2608"></path><path d="M 687.73 706.13 C 681.67 705.23 653.15 702.33 655.77 728.00 C 656.01 730.33 657.34 732.43 659.35 733.64 C 682.67 747.75 691.06 720.82 692.85 713.26 C 692.98 712.69 692.41 712.22 691.87 712.45 C 688.83 713.75 686.63 714.70 685.05 715.38 C 683.98 715.85 682.98 714.60 683.65 713.65 L 688.19 707.23 C 688.50 706.81 688.25 706.20 687.73 706.13 Z" fill="#d1ccff" fill-rule="nonzero" group-id="4,18" node-id="171" stroke="none" target-height="32.056458" target-width="37.22101" target-x="655.62897" target-y="705.5571"></path><path d="M 692.44 693.39 C 691.45 687.34 685.55 659.30 661.88 669.60 C 659.73 670.54 658.14 672.44 657.59 674.72 C 651.24 701.23 679.45 701.03 687.19 700.44 C 687.77 700.40 688.05 699.70 687.67 699.26 C 685.51 696.76 683.94 694.95 682.80 693.66 C 682.03 692.78 682.91 691.45 684.02 691.80 L 691.52 694.17 C 692.03 694.34 692.53 693.91 692.44 693.39 Z" fill="#d1ccff" fill-rule="nonzero" group-id="4,18" node-id="173" stroke="none" target-height="33.214966" target-width="35.764465" target-x="656.67554" target-y="667.3657"></path><path d="M 706.84 694.04 C 712.27 691.19 736.99 676.70 719.73 657.52 C 718.16 655.78 715.85 654.87 713.51 655.08 C 686.35 657.45 695.48 684.15 698.50 691.30 C 698.73 691.84 699.47 691.88 699.77 691.38 C 701.46 688.54 702.67 686.47 703.54 684.99 C 704.13 683.98 705.67 684.39 705.69 685.56 L 705.81 693.42 C 705.81 693.95 706.37 694.28 706.84 694.04 Z" fill="#d1ccff" fill-rule="nonzero" group-id="4,18" node-id="175" stroke="none" target-height="39.038757" target-width="31.105347" target-x="694.61017" target-y="655.08"></path><path d="M 710.75 708.69 C 714.85 713.25 734.98 733.65 749.32 712.19 C 750.62 710.24 750.93 707.78 750.16 705.56 C 741.17 679.83 717.55 695.24 711.36 699.93 C 710.89 700.28 711.04 701.01 711.60 701.18 C 714.77 702.12 717.07 702.79 718.72 703.26 C 719.84 703.58 719.82 705.18 718.69 705.48 L 711.10 707.54 C 710.58 707.68 710.39 708.30 710.75 708.69 Z" fill="#d1ccff" fill-rule="nonzero" group-id="4,18" node-id="177" stroke="none" target-height="30.763184" target-width="39.958313" target-x="710.5786" target-y="691.07056"></path><path d="M 706.87 704.49 C 706.87 708.70 703.46 712.11 699.25 712.11 C 695.04 712.11 691.63 708.70 691.63 704.49 C 691.63 700.28 695.04 696.87 699.25 696.87 C 703.46 696.87 706.87 700.28 706.87 704.49 Z" fill="#d1ccff" fill-rule="nonzero" group-id="4,18" node-id="179" stroke="none" target-height="15.23999" target-width="15.23999" target-x="691.63" target-y="696.87"></path></g></g><g node-id="429"><path d="M 387.06 765.72 C 384.22 771.16 372.16 797.15 397.28 803.07 C 399.56 803.61 401.98 803.03 403.78 801.53 C 424.74 784.10 402.03 767.37 395.48 763.21 C 394.99 762.90 394.35 763.29 394.39 763.87 C 394.62 767.17 394.80 769.56 394.93 771.27 C 395.02 772.43 393.52 772.97 392.84 772.02 L 388.26 765.63 C 387.96 765.21 387.31 765.25 387.06 765.72 Z" fill="#b0a4e3" fill-rule="nonzero" group-id="5" node-id="185" stroke="none" target-height="40.16736" target-width="30.75116" target-x="381.685" target-y="763.1008"></path><path d="M 377.39 754.96 C 371.33 754.06 342.81 751.16 345.43 776.83 C 345.67 779.16 347.00 781.26 349.01 782.47 C 372.33 796.58 380.72 769.65 382.51 762.09 C 382.64 761.52 382.07 761.05 381.53 761.28 C 378.49 762.58 376.29 763.53 374.71 764.21 C 373.64 764.68 372.64 763.43 373.31 762.48 L 377.85 756.06 C 378.16 755.64 377.91 755.04 377.39 754.96 Z" fill="#b0a4e3" fill-rule="nonzero" group-id="5" node-id="187" stroke="none" target-height="32.056458" target-width="37.22113" target-x="345.28888" target-y="754.38715"></path><path d="M 382.10 742.23 C 381.11 736.18 375.21 708.14 351.54 718.44 C 349.39 719.38 347.80 721.28 347.25 723.56 C 340.90 750.07 369.11 749.87 376.85 749.28 C 377.43 749.24 377.71 748.54 377.33 748.10 C 375.17 745.60 373.60 743.79 372.46 742.50 C 371.69 741.62 372.57 740.29 373.68 740.64 L 381.18 743.01 C 381.69 743.17 382.18 742.75 382.10 742.23 Z" fill="#b0a4e3" fill-rule="nonzero" group-id="5" node-id="189" stroke="none" target-height="33.214966" target-width="35.764465" target-x="346.33554" target-y="716.2057"></path><path d="M 396.49 742.87 C 401.92 740.02 426.64 725.53 409.38 706.35 C 407.81 704.61 405.50 703.70 403.16 703.91 C 376.00 706.28 385.13 732.98 388.15 740.13 C 388.38 740.67 389.12 740.71 389.42 740.21 C 391.11 737.37 392.32 735.30 393.19 733.82 C 393.78 732.81 395.32 733.22 395.34 734.39 L 395.46 742.25 C 395.47 742.78 396.02 743.12 396.49 742.87 Z" fill="#b0a4e3" fill-rule="nonzero" group-id="5" node-id="191" stroke="none" target-height="39.04303" target-width="31.105225" target-x="384.26016" target-y="703.91"></path><path d="M 400.40 757.53 C 404.50 762.09 424.63 782.49 438.97 761.03 C 440.27 759.08 440.58 756.62 439.81 754.40 C 430.82 728.67 407.20 744.08 401.01 748.77 C 400.54 749.12 400.69 749.85 401.25 750.02 C 404.42 750.96 406.72 751.63 408.37 752.10 C 409.49 752.42 409.47 754.02 408.35 754.32 L 400.76 756.38 C 400.24 756.51 400.05 757.14 400.40 757.53 Z" fill="#b0a4e3" fill-rule="nonzero" group-id="5" node-id="193" stroke="none" target-height="30.763123" target-width="39.952362" target-x="400.2346" target-y="739.9106"></path><path d="M 396.53 753.33 C 396.53 757.54 393.12 760.95 388.91 760.95 C 384.70 760.95 381.29 757.54 381.29 753.33 C 381.29 749.12 384.70 745.71 388.91 745.71 C 393.12 745.71 396.53 749.12 396.53 753.33 Z" fill="#b0a4e3" fill-rule="nonzero" group-id="5" node-id="195" stroke="none" target-height="15.23999" target-width="15.23999" target-x="381.29" target-y="745.71"></path></g><g node-id="430"><path d="M 687.61 573.93 C 685.41 578.15 676.06 598.30 695.54 602.90 C 697.31 603.32 699.18 602.87 700.58 601.71 C 716.84 588.20 699.23 575.22 694.14 571.99 C 693.76 571.75 693.26 572.05 693.30 572.50 C 693.48 575.06 693.62 576.91 693.72 578.24 C 693.79 579.14 692.63 579.56 692.10 578.83 L 688.55 573.87 C 688.31 573.54 687.80 573.57 687.61 573.93 Z" fill="#d1ccff" fill-rule="nonzero" group-id="6" node-id="200" stroke="none" target-height="31.14917" target-width="23.821228" target-x="683.45746" target-y="571.90515"></path><path d="M 680.11 565.59 C 675.41 564.89 653.30 562.64 655.33 582.55 C 655.51 584.36 656.55 585.98 658.10 586.93 C 676.19 597.87 682.69 576.99 684.08 571.13 C 684.18 570.69 683.74 570.32 683.32 570.50 C 680.96 571.51 679.26 572.24 678.03 572.77 C 677.20 573.13 676.42 572.17 676.95 571.43 L 680.47 566.45 C 680.71 566.12 680.52 565.65 680.11 565.59 Z" fill="#d1ccff" fill-rule="nonzero" group-id="6" node-id="202" stroke="none" target-height="24.876648" target-width="28.819519" target-x="655.2605" target-y="565.1737"></path><path d="M 683.77 555.72 C 683.01 551.03 678.43 529.28 660.07 537.27 C 658.40 538.00 657.17 539.48 656.75 541.24 C 651.82 561.80 673.70 561.64 679.70 561.18 C 680.15 561.15 680.37 560.61 680.07 560.27 C 678.39 558.33 677.17 556.93 676.30 555.92 C 675.70 555.24 676.38 554.21 677.25 554.48 L 683.06 556.32 C 683.45 556.45 683.83 556.12 683.77 555.72 Z" fill="#d1ccff" fill-rule="nonzero" group-id="6" node-id="204" stroke="none" target-height="25.73291" target-width="27.672302" target-x="656.0977" target-y="535.5237"></path><path d="M 694.93 556.22 C 699.14 554.01 718.31 542.77 704.92 527.90 C 703.70 526.55 701.91 525.85 700.10 526.01 C 679.04 527.85 686.12 548.55 688.46 554.10 C 688.64 554.52 689.21 554.55 689.44 554.16 C 690.75 551.95 691.69 550.36 692.37 549.20 C 692.83 548.42 694.02 548.74 694.04 549.64 L 694.13 555.74 C 694.13 556.15 694.57 556.41 694.93 556.22 Z" fill="#d1ccff" fill-rule="nonzero" group-id="6" node-id="206" stroke="none" target-height="30.20996" target-width="24.151733" target-x="685.41943" target-y="526.01"></path><path d="M 697.96 567.58 C 701.14 571.11 716.75 586.93 727.87 570.29 C 728.88 568.78 729.12 566.87 728.52 565.15 C 721.55 545.19 703.23 557.15 698.43 560.78 C 698.07 561.05 698.18 561.62 698.61 561.75 C 701.07 562.48 702.85 563.00 704.13 563.37 C 705.00 563.62 704.99 564.86 704.11 565.09 L 698.22 566.68 C 697.83 566.80 697.69 567.28 697.96 567.58 Z" fill="#d1ccff" fill-rule="nonzero" group-id="6" node-id="208" stroke="none" target-height="23.837158" target-width="30.971436" target-x="697.8425" target-y="553.9436"></path><path d="M 694.96 564.32 C 694.96 567.58 692.31 570.23 689.05 570.23 C 685.79 570.23 683.14 567.58 683.14 564.32 C 683.14 561.06 685.79 558.41 689.05 558.41 C 692.31 558.41 694.96 561.06 694.96 564.32 Z" fill="#d1ccff" fill-rule="nonzero" group-id="6" node-id="210" stroke="none" target-height="11.820007" target-width="11.820007" target-x="683.14" target-y="558.41"></path></g><g node-id="431"><path d="M 339.58 368.32 C 331.84 364.25 294.84 346.94 286.29 382.72 C 285.51 385.97 286.32 389.42 288.45 392.00 C 313.20 421.96 337.15 389.66 343.11 380.34 C 343.56 379.64 343.01 378.73 342.17 378.79 C 337.46 379.11 334.06 379.35 331.62 379.53 C 329.96 379.65 329.20 377.51 330.55 376.55 L 339.68 370.05 C 340.30 369.60 340.25 368.67 339.58 368.32 Z" fill="#d1ccff" fill-rule="nonzero" group-id="7" node-id="215" stroke="none" target-height="43.885864" target-width="57.272217" target-x="285.9989" target-y="360.57626"></path><path d="M 354.96 354.58 C 356.27 345.94 360.53 305.31 323.92 308.93 C 320.59 309.26 317.60 311.15 315.86 314.00 C 295.64 347.18 333.99 359.26 344.76 361.84 C 345.57 362.03 346.25 361.22 345.92 360.45 C 344.08 356.11 342.74 352.97 341.77 350.72 C 341.11 349.19 342.89 347.77 344.24 348.74 L 353.37 355.24 C 353.99 355.67 354.85 355.32 354.96 354.58 Z" fill="#d1ccff" fill-rule="nonzero" group-id="7" node-id="217" stroke="none" target-height="53.12094" target-width="45.720642" target-x="310.0905" target-y="308.71906"></path><path d="M 373.09 361.35 C 381.72 359.97 421.72 351.68 407.14 317.90 C 405.82 314.83 403.10 312.55 399.86 311.77 C 362.10 302.60 362.26 342.81 363.07 353.84 C 363.13 354.67 364.12 355.07 364.75 354.52 C 368.33 351.45 370.91 349.22 372.76 347.61 C 374.02 346.52 375.91 347.78 375.40 349.36 L 371.98 360.04 C 371.75 360.76 372.35 361.47 373.09 361.35 Z" fill="#d1ccff" fill-rule="nonzero" group-id="7" node-id="219" stroke="none" target-height="50.907623" target-width="47.38788" target-x="362.89172" target-y="310.44238"></path><path d="M 372.11 381.86 C 376.15 389.61 396.69 424.92 424.11 400.39 C 426.60 398.16 427.90 394.87 427.62 391.54 C 424.36 352.82 386.27 365.71 376.06 369.97 C 375.29 370.29 375.23 371.35 375.94 371.78 C 379.99 374.20 382.92 375.94 385.03 377.19 C 386.46 378.04 385.87 380.23 384.21 380.25 L 373.00 380.40 C 372.24 380.41 371.76 381.20 372.11 381.86 Z" fill="#d1ccff" fill-rule="nonzero" group-id="7" node-id="221" stroke="none" target-height="44.45929" target-width="55.625336" target-x="371.99466" target-y="364.47476"></path><path d="M 351.20 387.37 C 344.68 393.19 315.52 421.80 346.04 442.33 C 348.81 444.20 352.33 444.64 355.48 443.55 C 392.20 430.85 370.33 397.11 363.68 388.26 C 363.18 387.59 362.14 387.79 361.90 388.59 C 360.55 393.11 359.59 396.38 358.90 398.73 C 358.43 400.33 356.16 400.29 355.73 398.68 L 352.83 387.85 C 352.65 387.15 351.76 386.87 351.20 387.37 Z" fill="#d1ccff" fill-rule="nonzero" group-id="7" node-id="223" stroke="none" target-height="56.948547" target-width="43.84845" target-x="332.36444" target-y="387.13422"></path><path d="M 368.10 371.01 C 368.10 377.01 363.24 381.87 357.24 381.87 C 351.24 381.87 346.38 377.01 346.38 371.01 C 346.38 365.01 351.24 360.15 357.24 360.15 C 363.24 360.15 368.10 365.01 368.10 371.01 Z" fill="#d1ccff" fill-rule="nonzero" group-id="7" node-id="225" stroke="none" target-height="21.720001" target-width="21.720001" target-x="346.38" target-y="360.15"></path></g><g node-id="432"><g node-id="443"><path d="M 512.47 274.74 C 477.29 274.74 448.77 322.26 448.77 357.95 C 448.77 393.64 477.29 420.29 512.47 420.29 C 547.65 420.29 576.17 393.64 576.17 357.95 C 576.17 322.26 547.65 274.74 512.47 274.74 Z M 512.47 399.57 C 489.81 399.57 471.45 380.94 471.45 357.95 C 471.45 334.96 489.82 297.74 512.47 297.74 C 535.13 297.74 553.49 334.96 553.49 357.95 C 553.49 380.93 535.12 399.57 512.47 399.57 Z" fill="#f2f2f2" fill-rule="nonzero" group-id="8,19" node-id="232" stroke="none" target-height="145.55002" target-width="127.399994" target-x="448.77" target-y="274.74"></path><path d="M 512.47 421.79 C 475.91 421.79 447.27 393.75 447.27 357.95 C 447.27 339.78 454.35 318.90 466.20 302.10 C 479.33 283.49 495.76 273.24 512.47 273.24 C 529.18 273.24 545.61 283.49 558.73 302.10 C 570.58 318.91 577.66 339.78 577.66 357.95 C 577.66 393.75 549.03 421.79 512.47 421.79 Z M 512.47 276.24 C 496.76 276.24 481.20 286.04 468.66 303.83 C 457.32 319.90 450.28 340.64 450.28 357.95 C 450.28 392.07 477.60 418.79 512.48 418.79 C 547.36 418.79 574.68 392.06 574.68 357.95 C 574.68 340.64 567.64 319.90 556.30 303.83 C 543.73 286.03 528.17 276.24 512.47 276.24 Z M 512.47 401.07 C 489.02 401.07 469.95 381.73 469.95 357.95 C 469.95 333.58 489.00 296.24 512.47 296.24 C 535.94 296.24 554.99 333.58 554.99 357.95 C 554.99 381.72 535.92 401.07 512.47 401.07 Z M 512.47 299.24 C 491.03 299.24 472.95 335.30 472.95 357.95 C 472.95 380.07 490.68 398.07 512.47 398.07 C 534.26 398.07 551.99 380.07 551.99 357.95 C 551.99 335.30 533.90 299.24 512.47 299.24 Z" fill="#e6e6e6" fill-rule="nonzero" group-id="8,19" node-id="234" stroke="none" target-height="148.55002" target-width="130.38998" target-x="447.27" target-y="273.24"></path></g><g node-id="444"><path d="M 519.56 264.76 C 519.56 305.06 574.00 337.73 614.89 337.73 C 655.78 337.73 686.31 305.06 686.31 264.76 C 686.31 224.46 655.77 191.79 614.89 191.79 C 574.00 191.78 519.56 224.45 519.56 264.76 Z M 662.57 264.76 C 662.57 290.72 641.22 311.76 614.89 311.76 C 588.56 311.76 545.91 290.72 545.91 264.76 C 545.91 238.80 588.56 217.76 614.89 217.76 C 641.22 217.76 662.57 238.80 662.57 264.76 Z" fill="#f2f2f2" fill-rule="nonzero" group-id="8,20" node-id="239" stroke="none" target-height="145.94002" target-width="166.75" target-x="519.56" target-y="191.79"></path><path d="M 614.89 339.23 C 594.12 339.23 570.25 331.14 551.03 317.58 C 529.77 302.58 518.06 283.82 518.06 264.76 C 518.06 245.70 529.77 226.93 551.03 211.94 C 570.25 198.39 594.12 190.29 614.89 190.29 C 655.78 190.29 687.81 223.00 687.81 264.76 C 687.81 306.52 655.78 339.23 614.89 339.23 Z M 614.89 193.28 C 595.02 193.28 571.21 201.36 552.76 214.38 C 532.32 228.80 521.06 246.69 521.06 264.75 C 521.06 282.82 532.32 300.71 552.76 315.12 C 571.21 328.13 595.02 336.22 614.89 336.22 C 654.10 336.22 684.81 304.83 684.81 264.75 C 684.81 224.68 654.10 193.28 614.89 193.28 Z M 614.89 313.25 C 587.06 313.25 544.41 291.52 544.41 264.75 C 544.41 237.98 587.06 216.25 614.89 216.25 C 642.01 216.25 664.07 238.01 664.07 264.75 C 664.07 291.50 642.01 313.25 614.89 313.25 Z M 614.89 219.26 C 588.86 219.26 547.41 240.08 547.41 264.76 C 547.41 289.44 588.86 310.26 614.89 310.26 C 640.35 310.26 661.07 289.85 661.07 264.76 C 661.07 239.67 640.35 219.26 614.89 219.26 Z" fill="#e6e6e6" fill-rule="nonzero" group-id="8,20" node-id="241" stroke="none" target-height="148.94002" target-width="169.75" target-x="518.06" target-y="190.29"></path></g><g node-id="445"><path d="M 534.54 266.89 C 534.54 297.64 576.08 322.56 607.27 322.56 C 638.46 322.56 661.76 297.63 661.76 266.89 C 661.76 236.14 638.46 211.22 607.27 211.22 C 576.08 211.22 534.54 236.15 534.54 266.89 Z M 643.65 266.89 C 643.65 286.69 627.36 302.75 607.27 302.75 C 587.18 302.75 554.64 286.70 554.64 266.89 C 554.64 247.09 587.18 231.03 607.27 231.03 C 627.36 231.04 643.65 247.09 643.65 266.89 Z" fill="#f2f2f2" fill-rule="nonzero" group-id="8,21" node-id="246" stroke="none" target-height="111.34" target-width="127.22003" target-x="534.54" target-y="211.22"></path><path d="M 607.27 324.07 C 573.85 324.07 533.04 297.69 533.04 266.90 C 533.04 236.11 573.86 209.73 607.27 209.73 C 638.67 209.73 663.26 234.84 663.26 266.90 C 663.26 298.96 638.67 324.07 607.27 324.07 Z M 607.27 212.72 C 592.18 212.72 574.09 218.86 560.07 228.75 C 544.57 239.68 536.04 253.23 536.04 266.89 C 536.04 280.55 544.58 294.10 560.07 305.03 C 574.09 314.92 592.18 321.06 607.27 321.06 C 636.99 321.06 660.26 297.26 660.26 266.89 C 660.26 236.52 636.99 212.72 607.27 212.72 Z M 607.27 304.25 C 585.89 304.25 553.14 287.51 553.14 266.89 C 553.14 246.27 585.89 229.53 607.27 229.53 C 628.16 229.53 645.15 246.29 645.15 266.89 C 645.15 287.49 628.16 304.25 607.27 304.25 Z M 607.27 232.54 C 587.55 232.54 556.14 248.26 556.14 266.90 C 556.14 285.54 587.55 301.26 607.27 301.26 C 626.50 301.26 642.15 285.85 642.15 266.90 C 642.15 247.95 626.50 232.54 607.27 232.54 Z" fill="#e6e6e6" fill-rule="nonzero" group-id="8,21" node-id="248" stroke="none" target-height="114.34001" target-width="130.22003" target-x="533.04" target-y="209.73"></path></g><g node-id="446"><path d="M 409.11 191.78 C 368.22 191.78 337.69 224.45 337.69 264.75 C 337.69 305.05 368.23 337.72 409.11 337.72 C 449.99 337.72 504.44 305.05 504.44 264.75 C 504.44 224.45 450.00 191.78 409.11 191.78 Z M 409.11 217.76 C 435.44 217.76 478.09 238.80 478.09 264.76 C 478.09 290.72 435.44 311.76 409.11 311.76 C 382.78 311.76 361.43 290.72 361.43 264.76 C 361.43 238.80 382.78 217.76 409.11 217.76 Z" fill="#f2f2f2" fill-rule="nonzero" group-id="8,22" node-id="253" stroke="none" target-height="145.94" target-width="166.75" target-x="337.69" target-y="191.78"></path><path d="M 409.11 339.23 C 368.22 339.23 336.19 306.52 336.19 264.76 C 336.19 223.00 368.22 190.29 409.11 190.29 C 429.88 190.29 453.75 198.38 472.97 211.94 C 494.23 226.94 505.94 245.70 505.94 264.76 C 505.94 283.82 494.23 302.59 472.97 317.58 C 453.76 331.13 429.88 339.23 409.11 339.23 Z M 409.11 193.28 C 369.90 193.28 339.19 224.67 339.19 264.75 C 339.19 304.83 369.90 336.22 409.11 336.22 C 428.98 336.22 452.79 328.14 471.24 315.12 C 491.68 300.70 502.94 282.81 502.94 264.75 C 502.94 246.68 491.68 228.79 471.24 214.38 C 452.79 201.37 428.98 193.28 409.11 193.28 Z M 409.11 313.25 C 381.99 313.25 359.93 291.49 359.93 264.75 C 359.93 238.01 381.99 216.25 409.11 216.25 C 436.94 216.25 479.59 237.98 479.59 264.75 C 479.59 291.53 436.94 313.25 409.11 313.25 Z M 409.11 219.26 C 383.65 219.26 362.93 239.67 362.93 264.76 C 362.93 289.85 383.65 310.26 409.11 310.26 C 435.14 310.26 476.59 289.44 476.59 264.76 C 476.59 240.08 435.14 219.26 409.11 219.26 Z" fill="#e6e6e6" fill-rule="nonzero" group-id="8,22" node-id="255" stroke="none" target-height="148.94002" target-width="169.75" target-x="336.19" target-y="190.29"></path></g><g node-id="447"><path d="M 416.73 211.22 C 385.53 211.22 362.24 236.15 362.24 266.89 C 362.24 297.64 385.54 322.56 416.73 322.56 C 447.92 322.56 489.46 297.63 489.46 266.89 C 489.46 236.15 447.92 211.22 416.73 211.22 Z M 416.73 231.04 C 436.82 231.04 469.36 247.09 469.36 266.90 C 469.36 286.70 436.82 302.76 416.73 302.76 C 396.64 302.76 380.35 286.71 380.35 266.90 C 380.35 247.09 396.64 231.04 416.73 231.04 Z" fill="#f2f2f2" fill-rule="nonzero" group-id="8,23" node-id="260" stroke="none" target-height="111.34" target-width="127.22" target-x="362.24" target-y="211.22"></path><path d="M 416.73 324.07 C 385.33 324.07 360.74 298.96 360.74 266.90 C 360.74 234.84 385.34 209.73 416.73 209.73 C 450.15 209.73 490.96 236.11 490.96 266.90 C 490.96 297.69 450.14 324.07 416.73 324.07 Z M 416.73 212.72 C 387.01 212.72 363.74 236.52 363.74 266.89 C 363.74 297.26 387.02 321.06 416.73 321.06 C 431.82 321.06 449.91 314.92 463.93 305.03 C 479.43 294.10 487.96 280.55 487.96 266.89 C 487.96 253.23 479.42 239.68 463.93 228.75 C 449.91 218.86 431.82 212.72 416.73 212.72 Z M 416.73 304.25 C 395.84 304.25 378.85 287.49 378.85 266.89 C 378.85 246.29 395.84 229.53 416.73 229.53 C 438.11 229.53 470.86 246.27 470.86 266.89 C 470.86 287.51 438.10 304.25 416.73 304.25 Z M 416.73 232.54 C 397.50 232.54 381.85 247.95 381.85 266.90 C 381.85 285.85 397.50 301.26 416.73 301.26 C 436.45 301.26 467.86 285.54 467.86 266.90 C 467.86 248.26 436.45 232.54 416.73 232.54 Z" fill="#e6e6e6" fill-rule="nonzero" group-id="8,23" node-id="262" stroke="none" target-height="114.34001" target-width="130.22" target-x="360.74" target-y="209.73"></path></g><g node-id="448"><path d="M 520.67 249.60 L 528.96 226.82 L 579.44 245.20 C 584.45 247.02 587.03 252.56 585.21 257.57 L 583.52 262.21 C 581.70 267.22 576.16 269.80 571.15 267.98 L 520.67 249.60 Z" fill="#f2f2f2" fill-rule="nonzero" group-id="8,24" node-id="267" stroke="none" target-height="41.745728" target-width="65.12579" target-x="520.67" target-y="226.82"></path><path d="M 574.46 270.07 C 573.17 270.07 571.88 269.84 570.64 269.39 L 518.75 250.50 L 528.07 224.90 L 579.96 243.79 C 585.74 245.89 588.73 252.31 586.62 258.08 L 584.93 262.72 C 583.91 265.52 581.86 267.75 579.16 269.01 C 577.67 269.71 576.07 270.07 574.46 270.07 Z M 522.60 248.70 L 571.67 266.57 C 575.89 268.11 580.58 265.92 582.12 261.70 L 583.81 257.06 C 585.35 252.84 583.16 248.15 578.94 246.61 L 529.87 228.74 L 522.60 248.70 Z" fill="#e6e6e6" fill-rule="nonzero" group-id="8,24" node-id="269" stroke="none" target-height="45.170013" target-width="68.54956" target-x="518.75" target-y="224.9"></path></g><g node-id="449"><path d="M 512.38 272.38 L 520.67 249.60 L 571.15 267.98 C 576.16 269.80 578.74 275.34 576.92 280.35 L 575.23 284.99 C 573.41 290.00 567.87 292.58 562.86 290.76 L 512.38 272.38 Z" fill="#f2f2f2" fill-rule="nonzero" group-id="8,25" node-id="274" stroke="none" target-height="41.745667" target-width="65.12567" target-x="512.38" target-y="249.6"></path><path d="M 566.15 292.84 C 564.89 292.84 563.60 292.62 562.35 292.17 L 510.46 273.28 L 519.78 247.68 L 571.67 266.57 C 577.45 268.67 580.44 275.09 578.33 280.86 L 576.64 285.50 C 574.99 290.03 570.71 292.84 566.15 292.84 Z M 514.30 271.48 L 563.37 289.35 C 567.59 290.89 572.28 288.70 573.82 284.48 L 575.51 279.84 C 577.05 275.62 574.86 270.93 570.64 269.39 L 521.57 251.52 L 514.30 271.48 Z" fill="#e6e6e6" fill-rule="nonzero" group-id="8,25" node-id="276" stroke="none" target-height="45.160004" target-width="68.54953" target-x="510.46" target-y="247.68"></path></g><g node-id="450"><path d="M 534.70 280.83 L 557.48 289.12 L 539.10 339.60 C 537.28 344.61 531.74 347.19 526.73 345.37 L 522.09 343.68 C 517.08 341.86 514.50 336.32 516.32 331.31 L 534.70 280.83 Z" fill="#f2f2f2" fill-rule="nonzero" group-id="8,26" node-id="281" stroke="none" target-height="65.12576" target-width="41.745728" target-x="515.73425" target-y="280.83"></path><path d="M 530.04 347.46 C 528.75 347.46 527.46 347.23 526.22 346.78 L 521.58 345.09 C 515.80 342.99 512.81 336.57 514.92 330.80 L 533.81 278.91 L 559.41 288.23 L 540.52 340.12 C 539.50 342.92 537.45 345.15 534.75 346.41 C 533.24 347.11 531.64 347.46 530.04 347.46 Z M 535.60 282.76 L 517.73 331.83 C 516.19 336.05 518.38 340.74 522.60 342.28 L 527.24 343.97 C 529.28 344.72 531.50 344.62 533.47 343.70 C 535.44 342.78 536.94 341.15 537.69 339.10 L 555.56 290.03 L 535.60 282.76 Z" fill="#e6e6e6" fill-rule="nonzero" group-id="8,26" node-id="283" stroke="none" target-height="68.54999" target-width="45.169617" target-x="514.24036" target-y="278.91"></path></g><g node-id="451"><path d="M 511.92 272.54 L 534.70 280.83 L 516.32 331.31 C 514.50 336.32 508.96 338.90 503.95 337.08 L 499.31 335.39 C 494.30 333.57 491.72 328.03 493.54 323.02 L 511.92 272.54 Z" fill="#f2f2f2" fill-rule="nonzero" group-id="8,27" node-id="288" stroke="none" target-height="65.1257" target-width="41.745728" target-x="492.95428" target-y="272.54"></path><path d="M 507.26 339.17 C 505.97 339.17 504.68 338.94 503.44 338.49 L 498.80 336.80 C 496.00 335.78 493.77 333.73 492.51 331.03 C 491.25 328.33 491.12 325.30 492.14 322.50 L 511.03 270.61 L 536.63 279.93 L 517.74 331.82 C 516.72 334.62 514.67 336.85 511.97 338.11 C 510.46 338.82 508.86 339.17 507.26 339.17 Z M 512.82 274.46 L 494.95 323.53 C 494.20 325.58 494.30 327.79 495.22 329.76 C 496.14 331.73 497.77 333.23 499.82 333.98 L 504.46 335.67 C 506.51 336.42 508.72 336.32 510.69 335.40 C 512.66 334.48 514.16 332.85 514.91 330.80 L 532.78 281.73 L 512.82 274.46 Z" fill="#e6e6e6" fill-rule="nonzero" group-id="8,27" node-id="290" stroke="none" target-height="68.56003" target-width="45.159973" target-x="491.47003" target-y="270.61"></path></g><g node-id="452"><path d="M 503.88 295.29 L 495.59 318.07 L 445.11 299.69 C 440.10 297.87 437.52 292.33 439.34 287.32 L 441.03 282.68 C 442.85 277.67 448.39 275.09 453.40 276.91 L 503.88 295.29 Z" fill="#f2f2f2" fill-rule="nonzero" group-id="8,28" node-id="295" stroke="none" target-height="41.745728" target-width="65.12573" target-x="438.75427" target-y="276.32428"></path><path d="M 496.48 319.99 L 444.59 301.10 C 438.81 299.00 435.82 292.58 437.93 286.81 L 439.62 282.17 C 441.72 276.39 448.14 273.41 453.91 275.51 L 505.80 294.40 L 496.48 319.99 Z M 450.10 277.82 C 446.77 277.82 443.64 279.88 442.43 283.18 L 440.74 287.82 C 439.99 289.87 440.09 292.08 441.01 294.05 C 441.93 296.02 443.56 297.52 445.61 298.27 L 494.68 316.14 L 501.95 296.18 L 452.88 278.31 C 451.97 277.98 451.03 277.82 450.10 277.82 Z" fill="#e6e6e6" fill-rule="nonzero" group-id="8,28" node-id="297" stroke="none" target-height="45.155487" target-width="68.54956" target-x="437.25043" target-y="274.8345"></path></g><g node-id="453"><path d="M 512.17 272.51 L 503.88 295.29 L 453.40 276.91 C 448.39 275.09 445.81 269.55 447.63 264.54 L 449.32 259.90 C 451.14 254.89 456.68 252.31 461.69 254.13 L 512.17 272.51 Z" fill="#f2f2f2" fill-rule="nonzero" group-id="8,29" node-id="302" stroke="none" target-height="41.745743" target-width="65.1257" target-x="447.04428" target-y="253.54427"></path><path d="M 504.77 297.21 L 452.88 278.32 C 447.10 276.22 444.11 269.80 446.22 264.03 L 447.91 259.39 C 450.01 253.61 456.43 250.62 462.20 252.73 L 514.09 271.62 L 504.77 297.21 Z M 458.40 255.04 C 455.07 255.04 451.94 257.10 450.73 260.40 L 449.04 265.04 C 448.29 267.09 448.39 269.30 449.31 271.27 C 450.23 273.24 451.86 274.74 453.91 275.49 L 502.98 293.36 L 510.25 273.40 L 461.18 255.53 C 460.26 255.20 459.32 255.04 458.40 255.04 Z" fill="#e6e6e6" fill-rule="nonzero" group-id="8,29" node-id="304" stroke="none" target-height="45.15953" target-width="68.54953" target-x="445.5405" target-y="252.05046"></path></g><g node-id="454"><path d="M 489.77 264.32 L 466.99 256.03 L 485.37 205.55 C 487.19 200.54 492.73 197.96 497.74 199.78 L 502.38 201.47 C 507.39 203.29 509.97 208.83 508.15 213.84 L 489.77 264.32 Z" fill="#f2f2f2" fill-rule="nonzero" group-id="8,30" node-id="309" stroke="none" target-height="65.12575" target-width="41.745667" target-x="466.99" target-y="199.19426"></path><path d="M 490.67 266.24 L 465.07 256.92 L 483.96 205.03 C 484.98 202.23 487.03 200.00 489.73 198.74 C 492.43 197.48 495.46 197.35 498.26 198.37 L 502.90 200.06 C 505.70 201.08 507.93 203.13 509.19 205.83 C 510.45 208.53 510.58 211.56 509.56 214.36 L 490.67 266.24 Z M 468.91 255.13 L 488.87 262.40 L 506.74 213.33 C 507.49 211.28 507.39 209.07 506.47 207.10 C 505.55 205.13 503.92 203.63 501.87 202.88 L 497.23 201.19 C 495.18 200.44 492.97 200.54 491.00 201.46 C 489.03 202.38 487.53 204.01 486.78 206.06 L 468.91 255.13 Z" fill="#e6e6e6" fill-rule="nonzero" group-id="8,30" node-id="311" stroke="none" target-height="68.53999" target-width="45.160004" target-x="465.07" target-y="197.7"></path></g><g node-id="455"><path d="M 512.55 272.62 L 489.77 264.33 L 508.15 213.85 C 509.97 208.84 515.51 206.26 520.52 208.08 L 525.16 209.77 C 530.17 211.59 532.75 217.13 530.93 222.14 L 512.55 272.62 Z" fill="#f2f2f2" fill-rule="nonzero" group-id="8,31" node-id="316" stroke="none" target-height="65.12572" target-width="41.745758" target-x="489.77" target-y="207.49428"></path><path d="M 513.44 274.54 L 487.84 265.22 L 506.73 213.33 C 508.83 207.55 515.24 204.57 521.02 206.67 L 525.66 208.36 C 531.44 210.46 534.43 216.88 532.32 222.65 L 513.44 274.54 Z M 491.69 263.42 L 511.65 270.69 L 529.52 221.62 C 531.06 217.40 528.87 212.71 524.65 211.17 L 520.01 209.48 C 515.79 207.94 511.10 210.13 509.56 214.35 L 491.69 263.42 Z" fill="#e6e6e6" fill-rule="nonzero" group-id="8,31" node-id="318" stroke="none" target-height="68.545456" target-width="45.159515" target-x="487.84" target-y="205.99455"></path></g></g><g node-id="433"><g node-id="456"><path d="M 683.81 397.01 C 681.99 389.38 671.82 354.15 642.59 369.51 C 639.93 370.91 638.08 373.49 637.60 376.45 C 631.98 410.87 667.95 407.97 677.77 406.49 C 678.51 406.38 678.80 405.47 678.27 404.94 C 675.28 401.95 673.10 399.79 671.54 398.25 C 670.48 397.20 671.47 395.42 672.93 395.77 L 682.72 398.10 C 683.38 398.25 683.97 397.67 683.81 397.01 Z" fill="#b0a4e3" fill-rule="nonzero" group-id="9,32" node-id="326" stroke="none" target-height="41.578766" target-width="46.777527" target-x="637.0325" target-y="365.68387"></path><path d="M 702.18 399.28 C 708.79 395.06 738.76 373.94 714.69 351.34 C 712.50 349.29 709.46 348.38 706.50 348.89 C 672.14 354.83 686.64 387.88 691.25 396.68 C 691.60 397.34 692.55 397.32 692.88 396.64 C 694.73 392.83 696.06 390.07 697.00 388.09 C 697.64 386.74 699.65 387.10 699.80 388.59 L 700.80 398.60 C 700.87 399.27 701.62 399.64 702.18 399.28 Z" fill="#b0a4e3" fill-rule="nonzero" group-id="9,32" node-id="328" stroke="none" target-height="50.6503" target-width="39.650513" target-x="684.2612" target-y="348.76978"></path><path d="M 708.32 415.53 C 714.35 420.55 743.59 442.67 757.79 412.87 C 759.08 410.16 759.02 406.98 757.63 404.32 C 741.52 373.39 714.45 397.25 707.47 404.32 C 706.94 404.85 707.26 405.75 708.00 405.86 C 712.19 406.46 715.22 406.89 717.40 407.19 C 718.88 407.39 719.15 409.42 717.78 410.01 L 708.55 414.01 C 707.93 414.28 707.80 415.10 708.32 415.53 Z" fill="#b0a4e3" fill-rule="nonzero" group-id="9,32" node-id="330" stroke="none" target-height="39.232025" target-width="51.491333" target-x="707.22363" target-y="388.8958"></path><path d="M 693.88 426.99 C 691.03 434.30 679.31 469.04 712.08 473.07 C 715.06 473.44 718.05 472.37 720.14 470.21 C 744.37 445.13 713.16 427.01 704.25 422.63 C 703.58 422.30 702.82 422.88 702.96 423.62 C 703.72 427.78 704.27 430.80 704.68 432.96 C 704.96 434.43 703.12 435.32 702.13 434.21 L 695.41 426.72 C 694.94 426.22 694.12 426.36 693.88 426.99 Z" fill="#b0a4e3" fill-rule="nonzero" group-id="9,32" node-id="332" stroke="none" target-height="50.54019" target-width="39.581055" target-x="689.55884" target-y="422.5421"></path><path d="M 677.80 416.11 C 670.01 415.15 633.46 412.34 637.62 445.10 C 638.00 448.08 639.77 450.71 642.37 452.20 C 672.64 469.51 682.52 434.80 684.57 425.08 C 684.72 424.35 683.97 423.76 683.29 424.07 C 679.44 425.83 676.66 427.11 674.66 428.03 C 673.30 428.66 671.99 427.10 672.82 425.86 L 678.43 417.51 C 678.81 416.96 678.47 416.20 677.80 416.11 Z" fill="#b0a4e3" fill-rule="nonzero" group-id="9,32" node-id="334" stroke="none" target-height="41.296326" target-width="47.25531" target-x="637.3147" target-y="415.62402"></path><path d="M 702.17 410.53 C 702.17 415.91 697.81 420.27 692.43 420.27 C 687.05 420.27 682.69 415.91 682.69 410.53 C 682.69 405.15 687.05 400.79 692.43 400.79 C 697.81 400.79 702.17 405.15 702.17 410.53 Z" fill="#b0a4e3" fill-rule="nonzero" group-id="9,32" node-id="336" stroke="none" target-height="19.47998" target-width="19.47998" target-x="682.69" target-y="400.79"></path></g></g><g node-id="434"><g node-id="457"><path d="M 642.36 460.15 C 640.10 464.49 630.46 485.25 650.52 489.97 C 652.34 490.40 654.27 489.94 655.71 488.74 C 672.45 474.83 654.32 461.47 649.08 458.14 C 648.69 457.89 648.18 458.20 648.21 458.67 C 648.40 461.31 648.54 463.21 648.64 464.58 C 648.71 465.51 647.51 465.94 646.97 465.18 L 643.31 460.08 C 643.08 459.75 642.56 459.78 642.36 460.15 Z" fill="#d1ccff" fill-rule="nonzero" group-id="10,33" node-id="344" stroke="none" target-height="32.07675" target-width="24.523865" target-x="638.0825" target-y="458.0512"></path><path d="M 634.64 451.56 C 629.80 450.84 607.03 448.52 609.12 469.03 C 609.31 470.89 610.37 472.57 611.98 473.53 C 630.60 484.80 637.30 463.29 638.73 457.26 C 638.84 456.81 638.38 456.43 637.95 456.61 C 635.52 457.65 633.77 458.40 632.51 458.95 C 631.65 459.32 630.86 458.33 631.39 457.57 L 635.02 452.44 C 635.25 452.11 635.05 451.63 634.64 451.56 Z" fill="#d1ccff" fill-rule="nonzero" group-id="10,33" node-id="346" stroke="none" target-height="25.613037" target-width="29.722046" target-x="609.00793" target-y="451.13144"></path><path d="M 638.40 441.40 C 637.61 436.57 632.90 414.18 614.00 422.40 C 612.28 423.15 611.01 424.67 610.58 426.49 C 605.51 447.66 628.03 447.50 634.21 447.02 C 634.68 446.98 634.90 446.43 634.59 446.08 C 632.86 444.08 631.61 442.64 630.71 441.61 C 630.10 440.91 630.80 439.85 631.69 440.13 L 637.68 442.03 C 638.07 442.15 638.47 441.81 638.40 441.40 Z" fill="#d1ccff" fill-rule="nonzero" group-id="10,33" node-id="348" stroke="none" target-height="26.544464" target-width="28.557312" target-x="609.8427" target-y="420.58582"></path><path d="M 649.89 441.91 C 654.22 439.63 673.97 428.07 660.18 412.75 C 658.93 411.36 657.08 410.64 655.22 410.80 C 633.54 412.70 640.82 434.01 643.23 439.72 C 643.41 440.15 644.01 440.18 644.24 439.78 C 645.59 437.51 646.56 435.86 647.25 434.68 C 647.72 433.88 648.95 434.20 648.97 435.14 L 649.07 441.42 C 649.08 441.84 649.52 442.11 649.89 441.91 Z" fill="#d1ccff" fill-rule="nonzero" group-id="10,33" node-id="350" stroke="none" target-height="31.110016" target-width="24.86621" target-x="640.1028" target-y="410.8"></path><path d="M 653.02 453.61 C 656.29 457.25 672.37 473.54 683.81 456.40 C 684.85 454.84 685.10 452.88 684.48 451.11 C 677.30 430.56 658.44 442.87 653.50 446.61 C 653.13 446.89 653.24 447.48 653.69 447.61 C 656.22 448.36 658.06 448.89 659.38 449.27 C 660.28 449.53 660.26 450.80 659.36 451.04 L 653.30 452.68 C 652.89 452.80 652.73 453.30 653.02 453.61 Z" fill="#d1ccff" fill-rule="nonzero" group-id="10,33" node-id="352" stroke="none" target-height="24.545868" target-width="31.886047" target-x="652.8975" target-y="439.5713"></path><path d="M 649.92 450.26 C 649.92 453.62 647.20 456.34 643.84 456.34 C 640.48 456.34 637.76 453.62 637.76 450.26 C 637.76 446.90 640.48 444.18 643.84 444.18 C 647.20 444.18 649.92 446.90 649.92 450.26 Z" fill="#d1ccff" fill-rule="nonzero" group-id="10,33" node-id="354" stroke="none" target-height="12.160004" target-width="12.159973" target-x="637.76" target-y="444.18"></path></g></g><g node-id="435"><g node-id="458"><path d="M 359.66 433.98 C 358.33 428.42 350.92 402.72 329.60 413.92 C 327.66 414.94 326.31 416.82 325.96 418.98 C 321.86 444.08 348.10 441.97 355.26 440.89 C 355.80 440.81 356.01 440.15 355.62 439.76 C 353.44 437.58 351.85 436.00 350.71 434.88 C 349.93 434.11 350.66 432.82 351.72 433.07 L 358.86 434.77 C 359.34 434.88 359.78 434.46 359.66 433.98 Z" fill="#b0a4e3" fill-rule="nonzero" group-id="11,34" node-id="362" stroke="none" target-height="30.322174" target-width="34.11212" target-x="325.54788" target-y="411.13098"></path><path d="M 373.06 435.64 C 377.88 432.56 399.74 417.16 382.18 400.67 C 380.58 399.17 378.36 398.51 376.21 398.89 C 351.14 403.22 361.72 427.33 365.09 433.75 C 365.34 434.23 366.04 434.21 366.28 433.72 C 367.63 430.94 368.60 428.93 369.29 427.48 C 369.76 426.50 371.22 426.76 371.33 427.84 L 372.06 435.14 C 372.10 435.63 372.65 435.90 373.06 435.64 Z" fill="#b0a4e3" fill-rule="nonzero" group-id="11,34" node-id="364" stroke="none" target-height="36.94348" target-width="28.92334" target-x="359.98502" target-y="398.79712"></path><path d="M 377.54 447.49 C 381.94 451.15 403.26 467.29 413.63 445.55 C 414.57 443.57 414.52 441.26 413.51 439.32 C 401.76 416.76 382.01 434.16 376.92 439.32 C 376.54 439.71 376.77 440.36 377.31 440.44 C 380.37 440.88 382.58 441.19 384.17 441.41 C 385.25 441.56 385.45 443.03 384.44 443.47 L 377.71 446.39 C 377.25 446.57 377.16 447.17 377.54 447.49 Z" fill="#b0a4e3" fill-rule="nonzero" group-id="11,34" node-id="366" stroke="none" target-height="28.61139" target-width="37.557617" target-x="376.74362" target-y="428.06888"></path><path d="M 367.00 455.84 C 364.92 461.17 356.37 486.51 380.27 489.45 C 382.44 489.72 384.62 488.94 386.15 487.37 C 403.83 469.08 381.06 455.86 374.56 452.67 C 374.07 452.43 373.52 452.85 373.62 453.39 C 374.17 456.43 374.58 458.62 374.87 460.20 C 375.07 461.27 373.73 461.92 373.01 461.11 L 368.11 455.65 C 367.78 455.28 367.18 455.39 367.00 455.84 Z" fill="#b0a4e3" fill-rule="nonzero" group-id="11,34" node-id="368" stroke="none" target-height="36.853424" target-width="28.897339" target-x="363.84644" target-y="452.60587"></path><path d="M 355.28 447.91 C 349.60 447.21 322.94 445.16 325.97 469.05 C 326.25 471.22 327.54 473.14 329.44 474.23 C 351.52 486.86 358.73 461.54 360.22 454.45 C 360.33 453.92 359.78 453.49 359.29 453.71 C 356.48 454.99 354.45 455.93 353.00 456.60 C 352.01 457.06 351.05 455.92 351.66 455.02 L 355.75 448.93 C 356.01 448.53 355.77 447.98 355.28 447.91 Z" fill="#b0a4e3" fill-rule="nonzero" group-id="11,34" node-id="370" stroke="none" target-height="30.087128" target-width="34.47876" target-x="325.74124" target-y="447.55545"></path><path d="M 373.06 443.84 C 373.06 447.77 369.88 450.95 365.95 450.95 C 362.02 450.95 358.84 447.77 358.84 443.84 C 358.84 439.91 362.02 436.73 365.95 436.73 C 369.88 436.73 373.06 439.91 373.06 443.84 Z" fill="#b0a4e3" fill-rule="nonzero" group-id="11,34" node-id="372" stroke="none" target-height="14.220001" target-width="14.220001" target-x="358.84" target-y="436.73"></path></g></g><g node-id="436"><g node-id="459"><path d="M 590.16 833.44 C 585.44 837.62 564.30 858.15 586.25 873.06 C 588.24 874.42 590.78 874.75 593.06 873.97 C 619.59 864.94 603.93 840.53 599.17 834.12 C 598.81 833.64 598.06 833.78 597.88 834.35 C 596.89 837.60 596.18 839.96 595.68 841.66 C 595.34 842.81 593.70 842.78 593.39 841.62 L 591.34 833.80 C 591.20 833.28 590.56 833.08 590.16 833.44 Z" fill="#d1ccff" fill-rule="nonzero" group-id="12,35" node-id="380" stroke="none" target-height="41.078186" target-width="31.642761" target-x="576.4593" target-y="833.2704"></path><path d="M 584.82 819.55 C 579.33 816.46 553.02 803.19 546.10 828.81 C 545.47 831.14 545.98 833.64 547.46 835.54 C 564.67 857.66 582.62 834.88 587.11 828.28 C 587.45 827.78 587.07 827.12 586.47 827.14 C 583.07 827.27 580.61 827.37 578.85 827.45 C 577.65 827.50 577.15 825.94 578.14 825.28 L 584.86 820.78 C 585.31 820.49 585.29 819.82 584.82 819.55 Z" fill="#d1ccff" fill-rule="nonzero" group-id="12,35" node-id="382" stroke="none" target-height="31.575562" target-width="41.399536" target-x="545.83844" target-y="813.37994"></path><path d="M 594.02 809.06 C 595.30 802.89 599.93 773.79 573.42 774.99 C 571.01 775.10 568.78 776.35 567.42 778.33 C 551.58 801.45 578.74 811.63 586.39 813.90 C 586.97 814.07 587.49 813.51 587.28 812.94 C 586.12 809.74 585.28 807.43 584.67 805.77 C 584.25 804.64 585.59 803.69 586.53 804.44 L 592.86 809.48 C 593.28 809.81 593.91 809.59 594.02 809.06 Z" fill="#d1ccff" fill-rule="nonzero" group-id="12,35" node-id="384" stroke="none" target-height="38.91028" target-width="32.583557" target-x="562.5557" target-y="774.99"></path><path d="M 607.61 814.97 C 613.87 814.23 642.94 809.40 633.40 784.64 C 632.53 782.39 630.64 780.67 628.33 780.01 C 601.38 772.31 600.34 801.29 600.60 809.27 C 600.62 809.87 601.32 810.18 601.79 809.81 C 604.46 807.70 606.38 806.17 607.76 805.06 C 608.70 804.31 610.02 805.27 609.61 806.40 L 606.84 814.00 C 606.66 814.50 607.07 815.03 607.61 814.97 Z" fill="#d1ccff" fill-rule="nonzero" group-id="12,35" node-id="386" stroke="none" target-height="36.259644" target-width="34.66162" target-x="600.6" target-y="778.7103"></path><path d="M 605.98 830.48 C 608.24 836.36 620.08 863.35 641.73 848.01 C 643.70 846.62 644.90 844.36 644.97 841.95 C 645.80 813.94 617.45 820.06 609.78 822.28 C 609.20 822.45 609.07 823.20 609.55 823.57 C 612.25 825.64 614.21 827.12 615.62 828.19 C 616.58 828.91 615.97 830.44 614.78 830.32 L 606.74 829.50 C 606.19 829.44 605.78 829.97 605.98 830.48 Z" fill="#d1ccff" fill-rule="nonzero" group-id="12,35" node-id="388" stroke="none" target-height="32.481262" target-width="39.032227" target-x="605.93774" target-y="820.1685"></path><path d="M 604.32 822.22 C 604.32 826.54 600.81 830.05 596.49 830.05 C 592.17 830.05 588.66 826.54 588.66 822.22 C 588.66 817.90 592.17 814.39 596.49 814.39 C 600.81 814.39 604.32 817.90 604.32 822.22 Z" fill="#d1ccff" fill-rule="nonzero" group-id="12,35" node-id="390" stroke="none" target-height="15.659973" target-width="15.660034" target-x="588.66" target-y="814.39"></path></g></g><g node-id="437"><path d="M 351.05 805.95 C 351.50 810.85 354.66 833.64 374.18 826.71 C 375.95 826.08 377.33 824.64 377.90 822.85 C 384.47 801.98 361.88 800.56 355.64 800.60 C 355.17 800.60 354.91 801.14 355.19 801.52 C 356.78 803.65 357.94 805.18 358.77 806.28 C 359.34 807.03 358.56 808.04 357.69 807.70 L 351.82 805.38 C 351.43 805.22 351.01 805.53 351.05 805.95 Z" fill="#d1ccff" fill-rule="nonzero" group-id="13" node-id="396" stroke="none" target-height="27.390503" target-width="28.012177" target-x="351.05" target-y="800.6"></path><path d="M 339.85 802.90 C 335.37 804.93 314.87 815.36 327.79 831.55 C 328.96 833.02 330.78 833.86 332.66 833.80 C 354.53 833.19 348.49 811.37 346.41 805.49 C 346.25 805.05 345.66 804.98 345.40 805.37 C 343.91 807.57 342.84 809.16 342.07 810.31 C 341.55 811.09 340.33 810.69 340.38 809.75 L 340.66 803.44 C 340.66 803.02 340.23 802.72 339.85 802.90 Z" fill="#d1ccff" fill-rule="nonzero" group-id="13" node-id="398" stroke="none" target-height="30.899963" target-width="25.114197" target-x="323.6529" target-y="802.9"></path><path d="M 337.49 792.26 C 334.19 788.60 318.02 772.25 306.53 789.48 C 305.49 791.05 305.24 793.02 305.86 794.80 C 313.09 815.45 332.04 803.06 337.01 799.29 C 337.38 799.01 337.27 798.42 336.82 798.29 C 334.27 797.54 332.43 797.00 331.10 796.62 C 330.20 796.36 330.21 795.08 331.12 794.84 L 337.21 793.18 C 337.62 793.07 337.78 792.57 337.49 792.26 Z" fill="#d1ccff" fill-rule="nonzero" group-id="13" node-id="400" stroke="none" target-height="24.671387" target-width="32.056" target-x="305.5565" target-y="781.71576"></path><path d="M 347.49 786.44 C 349.91 782.16 360.30 761.63 340.32 756.19 C 338.50 755.70 336.55 756.09 335.06 757.24 C 317.77 770.64 335.52 784.69 340.67 788.21 C 341.06 788.48 341.58 788.18 341.56 787.71 C 341.46 785.06 341.39 783.14 341.33 781.76 C 341.29 780.82 342.51 780.43 343.03 781.21 L 346.53 786.46 C 346.75 786.82 347.28 786.80 347.49 786.44 Z" fill="#d1ccff" fill-rule="nonzero" group-id="13" node-id="402" stroke="none" target-height="32.3266" target-width="24.661865" target-x="327.67352" target-y="755.9855"></path><path d="M 356.49 794.63 C 361.24 795.92 383.69 800.94 384.04 780.23 C 384.07 778.35 383.21 776.55 381.72 775.39 C 364.47 761.93 355.23 782.60 353.09 788.45 C 352.93 788.89 353.34 789.32 353.79 789.19 C 356.34 788.44 358.18 787.90 359.50 787.50 C 360.40 787.23 361.08 788.31 360.45 789.01 L 356.22 793.70 C 355.94 794.01 356.09 794.52 356.49 794.63 Z" fill="#d1ccff" fill-rule="nonzero" group-id="13" node-id="404" stroke="none" target-height="25.088379" target-width="30.97049" target-x="353.06952" target-y="770.9946"></path><path d="M 353.02 796.79 C 353.02 800.16 350.28 802.90 346.91 802.90 C 343.54 802.90 340.80 800.16 340.80 796.79 C 340.80 793.42 343.54 790.68 346.91 790.68 C 350.28 790.68 353.02 793.42 353.02 796.79 Z" fill="#d1ccff" fill-rule="nonzero" group-id="13" node-id="406" stroke="none" target-height="12.220032" target-width="12.220001" target-x="340.8" target-y="790.68"></path></g><g node-id="438"><g node-id="460"><path d="M 650.67 788.79 C 642.23 788.16 602.70 787.01 608.87 822.09 C 609.43 825.28 611.48 828.03 614.36 829.50 C 647.87 846.59 656.73 808.68 658.43 798.10 C 658.56 797.30 657.72 796.71 657.00 797.08 C 652.94 799.17 650.01 800.70 647.91 801.80 C 646.48 802.55 644.98 800.94 645.81 799.56 L 651.42 790.27 C 651.80 789.64 651.40 788.84 650.67 788.79 Z" fill="#b0a4e3" fill-rule="nonzero" group-id="14,36" node-id="413" stroke="none" target-height="45.240906" target-width="50.18463" target-x="608.24536" target-y="788.6018"></path><path d="M 659.05 770.66 C 656.89 762.48 645.04 724.74 613.91 742.05 C 611.08 743.62 609.15 746.45 608.70 749.66 C 603.51 786.92 642.23 782.89 652.78 781.04 C 653.58 780.90 653.86 779.91 653.28 779.36 C 649.98 776.21 647.58 773.94 645.85 772.31 C 644.68 771.20 645.71 769.26 647.28 769.60 L 657.89 771.86 C 658.61 772.01 659.23 771.36 659.05 770.66 Z" fill="#b0a4e3" fill-rule="nonzero" group-id="14,36" node-id="415" stroke="none" target-height="44.56549" target-width="50.77472" target-x="608.27527" target-y="737.5908"></path><path d="M 677.76 769.70 C 684.90 765.15 717.24 742.39 691.29 717.99 C 688.93 715.77 685.65 714.79 682.46 715.34 C 645.38 721.72 661.00 757.38 665.97 766.88 C 666.34 767.60 667.37 767.57 667.73 766.84 C 669.73 762.73 671.16 759.76 672.19 757.62 C 672.89 756.17 675.05 756.56 675.21 758.16 L 676.28 768.96 C 676.34 769.69 677.15 770.09 677.76 769.70 Z" fill="#b0a4e3" fill-rule="nonzero" group-id="14,36" node-id="417" stroke="none" target-height="54.6416" target-width="42.76129" target-x="658.4463" target-y="715.2103"></path><path d="M 684.78 788.30 C 691.35 793.63 723.19 817.10 738.11 784.75 C 739.47 781.81 739.35 778.39 737.82 775.53 C 720.02 742.39 691.14 768.49 683.71 776.21 C 683.15 776.79 683.50 777.76 684.30 777.86 C 688.83 778.45 692.10 778.87 694.46 779.17 C 696.06 779.37 696.38 781.55 694.90 782.21 L 685.00 786.65 C 684.34 786.95 684.22 787.84 684.78 788.30 Z" fill="#b0a4e3" fill-rule="nonzero" group-id="14,36" node-id="419" stroke="none" target-height="42.311035" target-width="55.5968" target-x="683.4519" target-y="759.1921"></path><path d="M 668.33 801.24 C 664.78 808.92 649.88 845.56 684.90 852.05 C 688.08 852.64 691.37 851.69 693.76 849.50 C 721.50 824.09 689.08 802.53 679.77 797.23 C 679.07 796.83 678.22 797.41 678.31 798.21 C 678.85 802.74 679.25 806.02 679.55 808.38 C 679.75 809.98 677.72 810.82 676.72 809.56 L 669.98 801.05 C 669.52 800.49 668.63 800.58 668.33 801.24 Z" fill="#b0a4e3" fill-rule="nonzero" group-id="14,36" node-id="421" stroke="none" target-height="55.105957" target-width="42.611145" target-x="662.15125" target-y="797.1022"></path><path d="M 677.91 784.38 C 677.91 790.18 673.20 794.89 667.40 794.89 C 661.60 794.89 656.89 790.18 656.89 784.38 C 656.89 778.58 661.60 773.87 667.40 773.87 C 673.20 773.87 677.91 778.58 677.91 784.38 Z" fill="#b0a4e3" fill-rule="nonzero" group-id="14,36" node-id="423" stroke="none" target-height="21.02002" target-width="21.019958" target-x="656.89" target-y="773.87"></path></g></g></svg>